<svg width="32" height="31" viewBox="0 0 32 31" fill="none" xmlns="http://www.w3.org/2000/svg">
<path d="M30.9675 19.1805C28.9224 27.3835 20.614 32.3757 12.41 30.3303C4.2094 28.2852 -0.782752 19.9764 1.26331 11.7738C3.30733 3.56982 11.6158 -1.42302 19.8174 0.622368C28.0211 2.66741 33.0129 10.9769 30.9675 19.1805Z" fill="#001F8B"/>
<path d="M22.8685 13.295C23.1734 11.2574 21.622 10.1621 19.5008 9.43151L20.1888 6.67156L18.5089 6.25302L17.8389 8.94016C17.3972 8.83025 16.9436 8.72613 16.4928 8.62336L17.1675 5.91853L15.4886 5.5L14.7999 8.25894C14.4344 8.17557 14.0755 8.09323 13.727 8.0068L13.7291 7.99829L11.4121 7.41982L10.9654 9.21409C10.9654 9.21409 12.2118 9.49992 12.1856 9.51761C12.8661 9.68741 12.989 10.1376 12.9686 10.4949L12.1849 13.639C12.2319 13.6509 12.2924 13.6683 12.3595 13.6951C12.3033 13.6812 12.2438 13.6659 12.1818 13.6512L11.0831 18.0557C10.9997 18.2626 10.7888 18.5726 10.3131 18.4549C10.3297 18.4794 9.09182 18.15 9.09182 18.15L8.25781 20.0732L10.4441 20.6183C10.8507 20.7204 11.2495 20.8269 11.6418 20.9273L10.9466 23.7189L12.6249 24.1375L13.3136 21.3755C13.7719 21.5 14.217 21.6147 14.6526 21.7229L13.9662 24.4719L15.6462 24.8905L16.3413 22.104C19.2061 22.646 21.3604 22.4276 22.2672 19.8364C22.9978 17.7502 22.2308 16.5466 20.7234 15.762C21.8211 15.5085 22.6476 14.7864 22.8685 13.295ZM19.0298 18.6778C18.5106 20.764 14.9979 19.6363 13.8591 19.3535L14.7815 15.6551C15.9204 15.9392 19.5726 16.5021 19.0298 18.6778ZM19.5494 13.2647C19.0758 15.1624 16.1522 14.1984 15.2038 13.9619L16.0402 10.6075C16.9885 10.844 20.0428 11.2853 19.5494 13.2647Z" fill="white"/>
</svg>
