<svg width="21" height="28" viewBox="0 0 21 28" fill="none" xmlns="http://www.w3.org/2000/svg">
<path d="M18.0594 28.0004H2.02057C0.904805 28.0004 0 27.0959 0 25.9799V12.9893C0 11.8736 0.904494 10.9688 2.02057 10.9688H18.0597C19.1755 10.9688 20.0803 11.8732 20.0803 12.9893V25.9799C20.08 27.0959 19.1755 28.0004 18.0594 28.0004Z" fill="#001F8B"/>
<path d="M12.0578 17.8298C12.0578 16.5734 10.9094 15.5855 9.60508 15.858C8.8462 16.0167 8.23169 16.6287 8.07052 17.3873C7.88259 18.2716 8.27463 19.083 8.93674 19.5171V22.4963C8.93674 23.1058 9.43084 23.6002 10.0407 23.6002C10.6502 23.6002 11.1446 23.1061 11.1446 22.4963V19.5171C11.6941 19.1568 12.0578 18.5361 12.0578 17.8298Z" fill="white"/>
<path d="M16.8692 10.9715V6.2711C16.8692 2.80776 14.0614 0 10.5981 0H9.47422C6.01088 0 3.20312 2.80776 3.20312 6.2711V10.9715H5.69009V7.13141C5.69009 4.56634 7.76947 2.48697 10.3345 2.48697C12.5701 2.48697 14.3822 4.29907 14.3822 6.53463V10.9715H16.8692Z" fill="black"/>
</svg>
