<svg width="298" height="181" viewBox="0 0 298 181" fill="none" xmlns="http://www.w3.org/2000/svg">
    <rect width="296" height="180.568" rx="17.3148" fill="url(#paint0_linear_5061_13247)"/>
    <mask id="mask0_5061_13247" style="mask-type:alpha" maskUnits="userSpaceOnUse" x="1" y="0" width="297" height="181">
    <rect x="1.64844" width="296" height="180.568" rx="17.3148" fill="url(#paint1_linear_5061_13247)"/>
    </mask>
    <g mask="url(#mask0_5061_13247)">
    <path d="M262.215 191.316C253.971 21.4668 -143.447 -72.527 -112.939 96.4987L-12.3485 181.422C32.1751 212.479 268.947 330.03 262.215 191.316Z" fill="url(#paint2_linear_5061_13247)" fill-opacity="0.34"/>
    <path d="M277.331 86H236.634C235.746 86 235 86.7102 235 87.6336V117.322C235 118.21 235.71 118.956 236.634 118.956H277.366C278.254 118.956 279 118.245 279 117.322V87.6336C278.964 86.7458 278.254 86 277.331 86Z" fill="#FFD05B"/>
    <path d="M267.139 95.5529V86H264.831V95.5529H249.134V86H246.826V95.5529H235V97.8967H278.964V95.5529H267.139Z" fill="#F9B54C"/>
    <path d="M235 109.359H246.826V118.912H249.134V109.359H264.831V118.912H267.139V109.359H278.964V107.016H235V109.359Z" fill="#F9B54C"/>
    </g>
    <path d="M245.348 149.308L238.331 166.053H233.754L230.301 152.688C230.091 151.866 229.91 151.564 229.272 151.218C228.231 150.653 226.512 150.124 225 149.793L225.103 149.308H232.472C232.953 149.308 233.419 149.48 233.785 149.793C234.151 150.105 234.394 150.539 234.468 151.015L236.293 160.706L240.799 149.308H245.348ZM263.286 160.587C263.304 156.166 257.176 155.923 257.219 153.948C257.232 153.347 257.804 152.708 259.054 152.545C260.52 152.406 261.996 152.665 263.326 153.296L264.085 149.744C262.79 149.257 261.418 149.005 260.034 149C255.754 149 252.741 151.279 252.714 154.538C252.688 156.948 254.865 158.291 256.506 159.095C258.194 159.915 258.762 160.442 258.753 161.175C258.741 162.3 257.408 162.794 256.162 162.814C253.985 162.848 252.723 162.227 251.714 161.758L250.93 165.426C251.942 165.89 253.809 166.297 255.745 166.315C260.293 166.315 263.27 164.067 263.286 160.587ZM274.587 166.053H278.593L275.099 149.308H271.401C271.006 149.305 270.618 149.42 270.29 149.639C269.961 149.858 269.705 150.171 269.556 150.537L263.06 166.053H267.607L268.511 163.551H274.067L274.587 166.053ZM269.757 160.12L272.035 153.832L273.348 160.12H269.757ZM251.535 149.308L247.956 166.053H243.624L247.208 149.308H251.535Z" fill="white"/>
    <path d="M219.812 24.2H221.842L218.244 34H215.934L212.336 24.2H214.394L217.096 32.054L219.812 24.2ZM224.314 24.2H226.246V34H224.314V24.2ZM233.472 24.2C235.824 24.2 236.972 25.558 236.972 27.196C236.972 28.372 236.328 29.59 234.76 30.01L237.112 34H234.872L232.716 30.164H231.344V34H229.412V24.2H233.472ZM235.012 27.238C235.012 26.356 234.508 25.782 233.402 25.782H231.344V28.722H233.402C234.508 28.722 235.012 28.134 235.012 27.238ZM239.23 24.2H247.196V25.754H244.172V34H242.254V25.754H239.23V24.2ZM249.78 24.2H251.698V30.29C251.698 31.676 252.58 32.362 253.84 32.362C255.114 32.362 255.996 31.676 255.996 30.29V24.2H257.914V30.276C257.914 32.852 255.94 34.098 253.812 34.098C251.67 34.098 249.78 32.852 249.78 30.276V24.2ZM259.753 34L263.267 24.2H266.515L270.029 34H267.999L267.215 31.704H262.553L261.755 34H259.753ZM265.171 25.754H264.597L263.071 30.192H266.697L265.171 25.754ZM274.201 24.2V32.474L278.541 32.488V34H272.269V24.2H274.201Z" fill="white"/>
    <defs>
    <linearGradient id="paint0_linear_5061_13247" x1="277.036" y1="15.6657" x2="7.7086e-07" y2="176.446" gradientUnits="userSpaceOnUse">
    <stop stop-color="#2647BD"/>
    <stop offset="1" stop-color="#1B2AB1"/>
    </linearGradient>
    <linearGradient id="paint1_linear_5061_13247" x1="278.685" y1="15.6657" x2="1.64844" y2="176.446" gradientUnits="userSpaceOnUse">
    <stop stop-color="#161616"/>
    <stop offset="1" stop-color="#242424"/>
    </linearGradient>
    <linearGradient id="paint2_linear_5061_13247" x1="223.462" y1="84.9555" x2="4.12047" y2="169.851" gradientUnits="userSpaceOnUse">
    <stop stop-color="#D5D5D5"/>
    <stop offset="0.788762" stop-color="#818181" stop-opacity="0"/>
    </linearGradient>
    </defs>
</svg>
