<svg width="300" height="181" viewBox="0 0 300 181" fill="none" xmlns="http://www.w3.org/2000/svg">
<rect width="296" height="180.568" rx="17.3148" fill="url(#paint0_linear_5085_13591)"/>
<mask id="mask0_5085_13591" style="mask-type:alpha" maskUnits="userSpaceOnUse" x="1" y="0" width="297" height="181">
<rect x="1.64844" width="296" height="180.568" rx="17.3148" fill="url(#paint1_linear_5085_13591)"/>
</mask>
<g mask="url(#mask0_5085_13591)">
<path d="M262.215 191.316C253.971 21.4668 -143.447 -72.527 -112.939 96.4987L-12.3485 181.422C32.1751 212.479 268.947 330.03 262.215 191.316Z" fill="url(#paint2_linear_5085_13591)" fill-opacity="0.34"/>
</g>
<rect x="2" width="296" height="180.568" rx="17.3148" fill="url(#paint3_linear_5085_13591)"/>
<mask id="mask1_5085_13591" style="mask-type:alpha" maskUnits="userSpaceOnUse" x="3" y="0" width="297" height="181">
<rect x="3.64844" width="296" height="180.568" rx="17.3148" fill="url(#paint4_linear_5085_13591)"/>
</mask>
<g mask="url(#mask1_5085_13591)">
<path d="M264.215 191.316C255.971 21.4668 -141.447 -72.527 -110.939 96.4987L-10.3485 181.422C34.1751 212.479 270.947 330.03 264.215 191.316Z" fill="url(#paint5_linear_5085_13591)" fill-opacity="0.34"/>
<path d="M272.331 83H231.634C230.746 83 230 83.7102 230 84.6336V114.322C230 115.21 230.71 115.956 231.634 115.956H272.366C273.254 115.956 274 115.245 274 114.322V84.6336C273.964 83.7458 273.254 83 272.331 83Z" fill="#FFD05B"/>
<path d="M262.139 92.5529V83H259.831V92.5529H244.134V83H241.826V92.5529H230V94.8967H273.964V92.5529H262.139Z" fill="#F9B54C"/>
<path d="M230 106.359H241.826V115.912H244.134V106.359H259.831V115.912H262.139V106.359H273.964V104.016H230V106.359Z" fill="#F9B54C"/>
</g>
<path d="M245.348 149.308L238.331 166.053H233.754L230.301 152.688C230.091 151.866 229.91 151.564 229.272 151.218C228.231 150.653 226.512 150.124 225 149.793L225.103 149.308H232.472C232.953 149.308 233.419 149.48 233.785 149.793C234.151 150.105 234.394 150.539 234.468 151.015L236.293 160.706L240.799 149.308H245.348ZM263.286 160.587C263.304 156.166 257.176 155.923 257.219 153.948C257.232 153.347 257.804 152.708 259.054 152.545C260.52 152.406 261.996 152.665 263.326 153.296L264.085 149.744C262.79 149.257 261.418 149.005 260.034 149C255.754 149 252.741 151.279 252.714 154.538C252.688 156.948 254.865 158.291 256.506 159.095C258.194 159.915 258.762 160.442 258.753 161.175C258.741 162.3 257.408 162.794 256.162 162.814C253.985 162.848 252.723 162.227 251.714 161.758L250.93 165.426C251.942 165.89 253.809 166.297 255.745 166.315C260.293 166.315 263.27 164.067 263.286 160.587ZM274.587 166.053H278.593L275.099 149.308H271.401C271.006 149.305 270.618 149.42 270.29 149.639C269.961 149.858 269.705 150.171 269.556 150.537L263.06 166.053H267.607L268.511 163.551H274.067L274.587 166.053ZM269.757 160.12L272.035 153.832L273.348 160.12H269.757ZM251.535 149.308L247.956 166.053H243.624L247.208 149.308H251.535Z" fill="white"/>
<path d="M219.812 24.2H221.842L218.244 34H215.934L212.336 24.2H214.394L217.096 32.054L219.812 24.2ZM224.314 24.2H226.246V34H224.314V24.2ZM233.472 24.2C235.824 24.2 236.972 25.558 236.972 27.196C236.972 28.372 236.328 29.59 234.76 30.01L237.112 34H234.872L232.716 30.164H231.344V34H229.412V24.2H233.472ZM235.012 27.238C235.012 26.356 234.508 25.782 233.402 25.782H231.344V28.722H233.402C234.508 28.722 235.012 28.134 235.012 27.238ZM239.23 24.2H247.196V25.754H244.172V34H242.254V25.754H239.23V24.2ZM249.78 24.2H251.698V30.29C251.698 31.676 252.58 32.362 253.84 32.362C255.114 32.362 255.996 31.676 255.996 30.29V24.2H257.914V30.276C257.914 32.852 255.94 34.098 253.812 34.098C251.67 34.098 249.78 32.852 249.78 30.276V24.2ZM259.753 34L263.267 24.2H266.515L270.029 34H267.999L267.215 31.704H262.553L261.755 34H259.753ZM265.171 25.754H264.597L263.071 30.192H266.697L265.171 25.754ZM274.201 24.2V32.474L278.541 32.488V34H272.269V24.2H274.201Z" fill="white"/>
<path d="M94.1147 26.0785V29.2745H85.3434V26.0785H94.1147ZM87.1722 39.7148V25.386C87.1722 24.3325 87.3705 23.4595 87.767 22.767C88.1636 22.0687 88.714 21.5478 89.4183 21.2045C90.1226 20.8553 90.9364 20.6808 91.8597 20.6808C92.4634 20.6808 93.0316 20.7281 93.5643 20.8228C94.1029 20.9116 94.5024 20.9915 94.7628 21.0625L94.0703 24.2408C93.9105 24.1875 93.7152 24.1431 93.4844 24.1076C93.2595 24.0721 93.0464 24.0543 92.8452 24.0543C92.3362 24.0543 91.987 24.1668 91.7976 24.3917C91.6082 24.6166 91.5135 24.9244 91.5135 25.315V39.7148H87.1722ZM96.5032 39.7148V26.0785H100.72V28.5643H100.862C101.111 27.6647 101.516 26.9959 102.078 26.5579C102.641 26.114 103.295 25.892 104.041 25.892C104.242 25.892 104.449 25.9068 104.662 25.9364C104.875 25.9601 105.073 25.9986 105.257 26.0518V29.8249C105.05 29.7539 104.777 29.6977 104.44 29.6562C104.109 29.6148 103.813 29.5941 103.552 29.5941C103.037 29.5941 102.573 29.7095 102.158 29.9403C101.75 30.1652 101.427 30.4819 101.191 30.8903C100.96 31.2927 100.844 31.7662 100.844 32.3107V39.7148H96.5032ZM112.992 39.9723C111.566 39.9723 110.335 39.6912 109.299 39.1289C108.269 38.5607 107.476 37.7528 106.92 36.7053C106.369 35.6518 106.094 34.4 106.094 32.9499C106.094 31.5413 106.372 30.3103 106.928 29.2567C107.485 28.1973 108.269 27.3746 109.281 26.7887C110.293 26.1969 111.486 25.9009 112.859 25.9009C113.829 25.9009 114.717 26.0518 115.522 26.3537C116.327 26.6555 117.022 27.1024 117.608 27.6942C118.194 28.2861 118.65 29.017 118.976 29.8871C119.301 30.7512 119.464 31.7425 119.464 32.8612V33.9442H107.612V31.4229H115.424C115.419 30.9613 115.309 30.55 115.096 30.1889C114.883 29.8279 114.59 29.5468 114.217 29.3455C113.85 29.1384 113.427 29.0348 112.948 29.0348C112.462 29.0348 112.027 29.1443 111.643 29.3633C111.258 29.5763 110.953 29.8693 110.728 30.2422C110.503 30.6091 110.385 31.0264 110.373 31.494V34.0597C110.373 34.616 110.482 35.1043 110.701 35.5245C110.92 35.9388 111.231 36.2614 111.634 36.4922C112.036 36.723 112.516 36.8384 113.072 36.8384C113.457 36.8384 113.806 36.7852 114.119 36.6786C114.433 36.5721 114.702 36.4152 114.927 36.2081C115.152 36.0009 115.321 35.7464 115.433 35.4446L119.42 35.56C119.254 36.4537 118.89 37.232 118.328 37.8949C117.771 38.5518 117.04 39.0638 116.135 39.4308C115.229 39.7918 114.182 39.9723 112.992 39.9723ZM128.355 39.9723C126.929 39.9723 125.698 39.6912 124.662 39.1289C123.632 38.5607 122.839 37.7528 122.283 36.7053C121.733 35.6518 121.457 34.4 121.457 32.9499C121.457 31.5413 121.736 30.3103 122.292 29.2567C122.848 28.1973 123.632 27.3746 124.644 26.7887C125.657 26.1969 126.849 25.9009 128.222 25.9009C129.193 25.9009 130.081 26.0518 130.886 26.3537C131.691 26.6555 132.386 27.1024 132.972 27.6942C133.558 28.2861 134.014 29.017 134.339 29.8871C134.665 30.7512 134.827 31.7425 134.827 32.8612V33.9442H122.975V31.4229H130.788C130.782 30.9613 130.673 30.55 130.459 30.1889C130.246 29.8279 129.953 29.5468 129.581 29.3455C129.214 29.1384 128.79 29.0348 128.311 29.0348C127.826 29.0348 127.391 29.1443 127.006 29.3633C126.621 29.5763 126.316 29.8693 126.092 30.2422C125.867 30.6091 125.748 31.0264 125.736 31.494V34.0597C125.736 34.616 125.846 35.1043 126.065 35.5245C126.284 35.9388 126.595 36.2614 126.997 36.4922C127.4 36.723 127.879 36.8384 128.435 36.8384C128.82 36.8384 129.169 36.7852 129.483 36.6786C129.797 36.5721 130.066 36.4152 130.291 36.2081C130.516 36.0009 130.684 35.7464 130.797 35.4446L134.783 35.56C134.617 36.4537 134.253 37.232 133.691 37.8949C133.135 38.5518 132.404 39.0638 131.498 39.4308C130.593 39.7918 129.545 39.9723 128.355 39.9723Z" fill="white"/>
<path d="M66.4631 19.5268V25.7327H73.3746C74.6093 25.7327 75.6085 25.5036 76.3722 25.0453C77.1486 24.5743 77.5368 23.7468 77.5368 22.5629C77.5368 21.2517 77.0277 20.3861 76.0094 19.966C75.1311 19.6732 74.011 19.5268 72.6491 19.5268H66.4631ZM66.4631 30.392V37.8964H73.3746C74.6093 37.8964 75.5703 37.7309 76.2576 37.3999C77.505 36.7888 78.1287 35.6177 78.1287 33.8864C78.1287 32.4224 77.5241 31.4167 76.3149 30.8693C75.6403 30.5638 74.692 30.4047 73.4701 30.392H66.4631ZM74.5202 14.6385C77.5941 14.9958 80.4134 15.6887 81.8517 17.6364C82.7173 18.833 83.15 20.2652 83.15 21.9328C83.15 23.6514 82.7173 25.0326 81.8517 26.0765C81.3681 26.662 80.6553 27.1967 79.7134 27.6804C81.1517 28.2024 82.2336 29.0298 82.9591 30.1628C83.6974 31.2958 84.0665 32.6706 84.0665 34.2874C84.0665 35.955 83.6465 37.4508 82.8064 38.7747C82.2718 39.6531 81.6035 40.3915 80.8017 40.9898C79.8979 41.6772 78.8288 42.1482 77.5941 42.4028C76.3722 42.6574 76.0094 42.7847 73.6037 42.7847C71.1981 42.7847 63.4329 40.9898 60.8499 42.7847C58.2668 44.5797 54.1854 46.6003 50.3772 47.8244C46.5691 49.0485 42.8968 46.7363 44.2569 45.6483C45.6169 44.5602 50.2412 44.2882 54.5935 41.9761C58.9458 39.6639 57.3137 37.3518 53.2334 38.7747C53.2334 38.7747 44.6872 42.7847 42.897 43.3605C41.1067 43.9363 41.015 42.1121 41.015 41.1918C41.015 40.2715 21.6796 47.8244 18.4154 47.8244V47.8244C14.9122 47.8244 20.4558 43.38 23.8158 42.3887C31.4358 40.1405 45.2571 36.1256 49.0395 35.4477C54.3438 34.497 52.4397 31.5249 47.2714 31.6394C42.103 31.754 31.2557 35.7087 27.6237 36.6743C23.9917 37.6399 23.0397 35.2074 23.9917 34.2874C24.9438 33.3673 25.3517 33.8968 28.48 32.8361C31.6082 31.7755 31.3362 30.392 28.48 30.392C26.2356 30.392 22.7068 31.9012 21.2979 32.5478C20.8884 32.7357 20.4722 32.9143 20.0393 33.0394C18.8926 33.3709 17.9979 33.4713 17.3401 33.3856C14.8658 33.0635 17.6623 29.8976 19.9946 29.011C29.8853 25.251 56.8953 15.0816 60.8499 14.6385C65.7058 14.0944 71.4463 14.2811 74.5202 14.6385Z" fill="white"/>
<rect x="6" y="36.5078" width="7.88846" height="3.26419" rx="1.6321" transform="rotate(-18.8951 6 36.5078)" fill="white"/>
<rect x="14.4336" y="39.4961" width="7.88846" height="3.26419" rx="1.6321" transform="rotate(-18.8951 14.4336 39.4961)" fill="white"/>
<rect x="7.08594" y="49.293" width="7.88846" height="3.26419" rx="1.6321" transform="rotate(-18.8951 7.08594 49.293)" fill="white"/>
<path d="M118.163 7.92188C117.749 7.92188 117.413 8.25766 117.413 8.67188C117.413 9.08609 117.749 9.42188 118.163 9.42188V7.92188ZM132.682 13.7481C133.096 13.7481 133.432 13.4123 133.432 12.9981C133.432 12.5839 133.096 12.2481 132.682 12.2481L132.682 13.7481ZM115.805 12.2481C115.39 12.2481 115.055 12.5838 115.055 12.9981C115.055 13.4123 115.39 13.7481 115.805 13.7481L115.805 12.2481ZM130.166 19.3404C130.58 19.3404 130.916 19.0046 130.916 18.5904C130.916 18.1762 130.58 17.8404 130.166 17.8404L130.166 19.3404ZM123.562 17.8404C123.148 17.8404 122.812 18.1762 122.812 18.5904C122.812 19.0046 123.148 19.3404 123.562 19.3404L123.562 17.8404ZM118.163 9.42188H130.69V7.92188H118.163V9.42188ZM132.875 11.6263V20.7535H134.375V11.6263H132.875ZM130.69 22.9579H118.163V24.4579H130.69V22.9579ZM132.875 20.7535C132.875 21.9756 131.892 22.9579 130.69 22.9579V24.4579C132.73 24.4579 134.375 22.7948 134.375 20.7535H132.875ZM130.69 9.42188C131.892 9.42188 132.875 10.4042 132.875 11.6263H134.375C134.375 9.58506 132.73 7.92188 130.69 7.92188V9.42188ZM132.682 12.2481L115.805 12.2481L115.805 13.7481L132.682 13.7481L132.682 12.2481ZM130.166 17.8404L123.562 17.8404L123.562 19.3404L130.166 19.3404L130.166 17.8404Z" fill="white"/>
<path d="M117.448 13.6824L118.589 12.542L119.729 13.6824L118.589 14.8227L117.448 13.6824Z" fill="white" stroke="white" stroke-width="0.75"/>
<path d="M120.788 23.4257L122.207 22.0069L123.626 23.4257L122.207 24.8445L120.788 23.4257Z" fill="white" stroke="white" stroke-width="0.75"/>
<path d="M118.515 10.3425L119.42 9.25764L120.324 10.3425L119.42 11.4275L118.515 10.3425Z" fill="white" stroke="white" stroke-width="0.75"/>
<path d="M114.105 12.8454L114.966 11.9835L115.828 12.8454L114.966 13.7073L114.105 12.8454Z" fill="white" stroke="white" stroke-width="0.75"/>
<path d="M112.437 10.0641L113.298 9.20221L114.16 10.0641L113.298 10.926L112.437 10.0641Z" fill="white" stroke="white" stroke-width="0.75"/>
<path d="M110.82 14.5172L111.905 13.6131L112.99 14.5172L111.905 15.4213L110.82 14.5172Z" fill="white" stroke="white" stroke-width="0.75"/>
<path d="M115.218 8.94912L116.637 7.53033L118.055 8.94912L116.637 10.3679L115.218 8.94912Z" fill="white" stroke="white" stroke-width="0.75"/>
<path d="M114.663 17.299L116.639 15.3233L118.615 17.299L116.639 19.2747L114.663 17.299Z" fill="white" stroke="white" stroke-width="0.75"/>
<path d="M116.335 21.7599L118.311 19.7842L120.286 21.7599L118.311 23.7356L116.335 21.7599Z" fill="white" stroke="white" stroke-width="0.75"/>
<path d="M110.765 19.5294L112.74 17.5538L114.716 19.5294L112.74 21.5051L110.765 19.5294Z" fill="white" stroke="white" stroke-width="0.75"/>
<defs>
<linearGradient id="paint0_linear_5085_13591" x1="277.036" y1="15.6657" x2="7.7086e-07" y2="176.446" gradientUnits="userSpaceOnUse">
<stop stop-color="#2647BD"/>
<stop offset="1" stop-color="#1B2AB1"/>
</linearGradient>
<linearGradient id="paint1_linear_5085_13591" x1="278.685" y1="15.6657" x2="1.64844" y2="176.446" gradientUnits="userSpaceOnUse">
<stop stop-color="#161616"/>
<stop offset="1" stop-color="#242424"/>
</linearGradient>
<linearGradient id="paint2_linear_5085_13591" x1="223.462" y1="84.9555" x2="4.12047" y2="169.851" gradientUnits="userSpaceOnUse">
<stop stop-color="#D5D5D5"/>
<stop offset="0.788762" stop-color="#818181" stop-opacity="0"/>
</linearGradient>
<linearGradient id="paint3_linear_5085_13591" x1="279.036" y1="15.6657" x2="2" y2="176.446" gradientUnits="userSpaceOnUse">
<stop stop-color="#2647BD"/>
<stop offset="1" stop-color="#1B2AB1"/>
</linearGradient>
<linearGradient id="paint4_linear_5085_13591" x1="280.685" y1="15.6657" x2="3.64844" y2="176.446" gradientUnits="userSpaceOnUse">
<stop stop-color="#161616"/>
<stop offset="1" stop-color="#242424"/>
</linearGradient>
<linearGradient id="paint5_linear_5085_13591" x1="225.462" y1="84.9555" x2="6.12047" y2="169.851" gradientUnits="userSpaceOnUse">
<stop stop-color="#D5D5D5"/>
<stop offset="0.788762" stop-color="#818181" stop-opacity="0"/>
</linearGradient>
</defs>
</svg>
