<svg width="24" height="25" viewBox="0 0 24 25" fill="none" xmlns="http://www.w3.org/2000/svg">
<path d="M11.9908 1.00781L0.53125 9.86906H3.39956V23.9269H8.86641V17.0166C8.86641 15.9047 9.7455 14.995 10.8201 14.995H13.1618C14.2363 14.995 15.1154 15.9047 15.1154 17.0166V23.9269H20.5823V9.86906H23.4503L11.9908 1.00781Z" fill="#001F8B"/>
<path d="M20.5787 24.3186H15.1119C14.8937 24.3186 14.7167 24.1416 14.7167 23.9235V17.0135C14.7167 16.1165 14.0175 15.3868 13.1582 15.3868H10.8165C9.95717 15.3868 9.25774 16.1165 9.25774 17.0135V23.9235C9.25774 24.1416 9.08098 24.3186 8.86259 24.3186H3.39626C3.17787 24.3186 3.0011 24.1416 3.0011 23.9235V10.2608H0.527949C0.358822 10.2608 0.208663 10.1533 0.154132 9.99341C0.0993366 9.83351 0.152551 9.65648 0.286377 9.55321L11.7459 0.691963C11.8882 0.581846 12.0871 0.581846 12.2293 0.691963L23.6888 9.55321C23.8224 9.65674 23.8756 9.83351 23.8211 9.99341C23.7663 10.1533 23.6161 10.2608 23.447 10.2608H20.9739V23.9235C20.9739 24.1416 20.7968 24.3186 20.5787 24.3186ZM15.507 23.5283H20.1835V9.86565C20.1835 9.64726 20.3606 9.47049 20.5787 9.47049H22.29L11.9875 1.50388L1.68497 9.47049H3.39626C3.61465 9.47049 3.79141 9.64726 3.79141 9.86565V23.5283H8.46769V17.0135C8.46769 15.6808 9.52144 14.5965 10.8168 14.5965H13.1585C14.4535 14.5965 15.5073 15.6808 15.5073 17.0135L15.507 23.5283Z" fill="#001F8B"/>
</svg>
