<svg width="298" height="181" viewBox="0 0 298 181" fill="none" xmlns="http://www.w3.org/2000/svg">
<rect width="296" height="180.568" rx="17.3148" fill="url(#paint0_linear_8462_218323)"/>
<mask id="mask0_8462_218323" style="mask-type:alpha" maskUnits="userSpaceOnUse" x="1" y="0" width="297" height="181">
<rect x="1.64844" width="296" height="180.568" rx="17.3148" fill="url(#paint1_linear_8462_218323)"/>
</mask>
<g mask="url(#mask0_8462_218323)">
<path d="M262.216 191.315C253.973 21.4658 -143.445 -72.528 -112.938 96.4977L-12.3471 181.421C32.1766 212.478 268.949 330.029 262.216 191.315Z" fill="url(#paint2_linear_8462_218323)" fill-opacity="0.34"/>
</g>
<rect x="2" width="296" height="180.568" rx="17.3148" fill="url(#paint3_linear_8462_218323)"/>
<mask id="mask1_8462_218323" style="mask-type:alpha" maskUnits="userSpaceOnUse" x="3" y="0" width="297" height="181">
<rect x="3.64844" width="296" height="180.568" rx="17.3148" fill="url(#paint4_linear_8462_218323)"/>
</mask>
<g mask="url(#mask1_8462_218323)">
<path d="M264.216 191.315C255.973 21.4658 -141.445 -72.528 -110.938 96.4977L-10.3471 181.421C34.1766 212.478 270.949 330.029 264.216 191.315Z" fill="url(#paint5_linear_8462_218323)" fill-opacity="0.34"/>
<path d="M272.331 83H231.634C230.746 83 230 83.7102 230 84.6336V114.322C230 115.21 230.71 115.956 231.634 115.956H272.366C273.254 115.956 274 115.245 274 114.322V84.6336C273.964 83.7458 273.254 83 272.331 83Z" fill="#FFD05B"/>
<path d="M262.139 92.5529V83H259.831V92.5529H244.134V83H241.826V92.5529H230V94.8967H273.964V92.5529H262.139Z" fill="#F9B54C"/>
<path d="M230 106.36H241.826V115.913H244.134V106.36H259.831V115.913H262.139V106.36H273.964V104.017H230V106.36Z" fill="#F9B54C"/>
</g>
<g clip-path="url(#clip0_8462_218323)">
<path d="M238.004 163.839V161.721C238.004 160.909 237.476 160.38 236.57 160.38C236.117 160.38 235.627 160.521 235.287 160.98C235.024 160.592 234.646 160.38 234.08 160.38C233.703 160.38 233.326 160.486 233.024 160.874V160.451H232.232V163.839H233.024V161.968C233.024 161.369 233.364 161.086 233.892 161.086C234.42 161.086 234.684 161.404 234.684 161.968V163.839H235.476V161.968C235.476 161.369 235.853 161.086 236.344 161.086C236.872 161.086 237.136 161.404 237.136 161.968V163.839H238.004ZM249.736 160.451H248.453V159.427H247.661V160.451H246.944V161.121H247.661V162.675C247.661 163.451 248 163.91 248.906 163.91C249.245 163.91 249.623 163.804 249.887 163.663L249.66 163.028C249.434 163.169 249.17 163.204 248.981 163.204C248.604 163.204 248.453 162.992 248.453 162.639V161.121H249.736V160.451ZM256.451 160.38C255.998 160.38 255.696 160.592 255.508 160.874V160.451H254.715V163.839H255.508V161.933C255.508 161.369 255.772 161.051 256.262 161.051C256.413 161.051 256.602 161.086 256.752 161.121L256.979 160.415C256.828 160.38 256.602 160.38 256.451 160.38M246.303 160.733C245.926 160.486 245.398 160.38 244.832 160.38C243.926 160.38 243.323 160.804 243.323 161.474C243.323 162.039 243.776 162.357 244.568 162.463L244.945 162.498C245.36 162.569 245.586 162.675 245.586 162.851C245.586 163.098 245.284 163.275 244.756 163.275C244.228 163.275 243.813 163.098 243.549 162.922L243.172 163.487C243.587 163.769 244.153 163.91 244.718 163.91C245.775 163.91 246.378 163.451 246.378 162.816C246.378 162.216 245.888 161.898 245.133 161.792L244.756 161.757C244.417 161.721 244.153 161.651 244.153 161.439C244.153 161.192 244.417 161.051 244.832 161.051C245.284 161.051 245.737 161.227 245.963 161.333L246.303 160.733ZM267.353 160.38C266.9 160.38 266.598 160.592 266.41 160.874V160.451H265.618V163.84H266.41V161.933C266.41 161.369 266.674 161.051 267.164 161.051C267.315 161.051 267.504 161.086 267.655 161.122L267.881 160.416C267.73 160.38 267.504 160.38 267.353 160.38ZM257.243 162.145C257.243 163.169 257.997 163.91 259.167 163.91C259.695 163.91 260.072 163.804 260.449 163.522L260.072 162.922C259.77 163.134 259.469 163.239 259.129 163.239C258.488 163.239 258.035 162.816 258.035 162.145C258.035 161.51 258.488 161.086 259.129 161.051C259.469 161.051 259.77 161.157 260.072 161.369L260.449 160.769C260.072 160.486 259.695 160.38 259.167 160.38C257.997 160.38 257.243 161.122 257.243 162.145ZM264.561 162.145V160.451H263.769V160.874C263.505 160.557 263.128 160.38 262.637 160.38C261.619 160.38 260.827 161.122 260.827 162.145C260.827 163.169 261.619 163.91 262.637 163.91C263.166 163.91 263.543 163.734 263.769 163.416V163.84H264.561V162.145ZM261.657 162.145C261.657 161.545 262.072 161.051 262.751 161.051C263.392 161.051 263.845 161.51 263.845 162.145C263.845 162.745 263.392 163.239 262.751 163.239C262.072 163.204 261.657 162.745 261.657 162.145ZM252.188 160.38C251.132 160.38 250.377 161.086 250.377 162.145C250.377 163.204 251.131 163.91 252.226 163.91C252.754 163.91 253.282 163.769 253.697 163.451L253.32 162.922C253.018 163.134 252.641 163.275 252.263 163.275C251.773 163.275 251.283 163.063 251.169 162.463H253.848V162.181C253.886 161.086 253.207 160.38 252.188 160.38ZM252.188 161.016C252.678 161.016 253.018 161.298 253.093 161.828H251.207C251.282 161.369 251.622 161.016 252.188 161.016ZM271.842 162.145V159.109H271.05V160.874C270.786 160.557 270.408 160.38 269.918 160.38C268.899 160.38 268.107 161.122 268.107 162.145C268.107 163.169 268.899 163.91 269.918 163.91C270.446 163.91 270.823 163.734 271.05 163.416V163.84H271.842V162.145ZM268.937 162.145C268.937 161.545 269.352 161.051 270.031 161.051C270.673 161.051 271.125 161.51 271.125 162.145C271.125 162.745 270.673 163.239 270.031 163.239C269.352 163.204 268.937 162.745 268.937 162.145ZM242.455 162.145V160.451H241.663V160.874C241.399 160.557 241.021 160.38 240.531 160.38C239.512 160.38 238.72 161.122 238.72 162.145C238.72 163.169 239.512 163.91 240.531 163.91C241.059 163.91 241.436 163.734 241.663 163.416V163.84H242.455V162.145ZM239.512 162.145C239.512 161.545 239.927 161.051 240.606 161.051C241.248 161.051 241.701 161.51 241.701 162.145C241.701 162.745 241.248 163.239 240.606 163.239C239.927 163.204 239.512 162.745 239.512 162.145Z" fill="white"/>
<path d="M246.035 134.719H257.918V154.699H246.035V134.719Z" fill="#FF5F00"/>
<path d="M246.793 144.708C246.793 140.649 248.83 137.048 251.961 134.718C249.66 133.024 246.755 132 243.586 132C236.079 132 230.005 137.683 230.005 144.708C230.005 151.733 236.079 157.416 243.586 157.416C246.755 157.416 249.659 156.393 251.961 154.698C248.83 152.404 246.793 148.768 246.793 144.708Z" fill="#EB001B"/>
<path d="M273.952 144.708C273.952 151.733 267.878 157.416 260.371 157.416C257.202 157.416 254.297 156.393 251.996 154.698C255.165 152.368 257.165 148.768 257.165 144.708C257.165 140.649 255.127 137.048 251.996 134.718C254.297 133.024 257.202 132 260.371 132C267.878 132 273.952 137.719 273.952 144.708Z" fill="#F79E1B"/>
</g>
<path d="M212.171 24.0244H214.126L216.396 29.9922L218.665 24.0244H220.627L217.236 33H215.555L212.171 24.0244ZM222.82 24.0244H224.748V33H222.82V24.0244ZM227.659 24.0244H230.612C231.51 24.0244 232.219 24.2614 232.738 24.7354C233.262 25.2093 233.524 25.8496 233.524 26.6562C233.524 27.1165 233.403 27.5951 233.162 28.0918C232.925 28.5885 232.485 28.9782 231.843 29.2607L234.351 33H232.136L229.812 29.5273H229.594V33H227.659V24.0244ZM229.607 25.624V27.9619H230.024C231.031 27.9619 231.535 27.5495 231.535 26.7246C231.535 26.3874 231.403 26.1208 231.138 25.9248C230.879 25.7243 230.516 25.624 230.052 25.624H229.607ZM236.203 24.0244H242.239V25.9316H240.181V33H238.247V25.9316H236.203V24.0244ZM244.651 24.0244H246.558V29.5137C246.558 30.0241 246.699 30.4342 246.982 30.7441C247.265 31.054 247.636 31.209 248.096 31.209C248.625 31.209 249.035 31.054 249.327 30.7441C249.618 30.4297 249.764 29.9876 249.764 29.418V24.0244H251.665V29.835C251.665 30.3454 251.532 30.8763 251.268 31.4277C251.004 31.9746 250.596 32.3939 250.044 32.6855C249.498 32.9772 248.885 33.123 248.206 33.123C246.975 33.123 246.075 32.7812 245.505 32.0977C244.936 31.4095 244.651 30.6872 244.651 29.9307V24.0244ZM257.481 24.0244H258.978L262.642 33H260.701L259.969 31.2363H256.531L255.827 33H253.892L257.481 24.0244ZM258.233 26.9639L257.187 29.6094H259.313L258.233 26.9639ZM265.17 24.0244H267.091V31.0654H269.737V33H265.17V24.0244Z" fill="white"/>
<path d="M94.1127 26.0785V29.2745H85.3414V26.0785H94.1127ZM87.1703 39.7148V25.386C87.1703 24.3325 87.3685 23.4595 87.7651 22.767C88.1616 22.0687 88.7121 21.5478 89.4164 21.2045C90.1207 20.8553 90.9345 20.6808 91.8578 20.6808C92.4615 20.6808 93.0297 20.7281 93.5623 20.8228C94.1009 20.9116 94.5004 20.9915 94.7608 21.0625L94.0684 24.2408C93.9086 24.1875 93.7132 24.1431 93.4824 24.1076C93.2575 24.0721 93.0444 24.0543 92.8432 24.0543C92.3342 24.0543 91.985 24.1668 91.7956 24.3917C91.6062 24.6166 91.5115 24.9244 91.5115 25.315V39.7148H87.1703ZM96.5013 39.7148V26.0785H100.718V28.5643H100.86C101.109 27.6647 101.514 26.9959 102.077 26.5579C102.639 26.114 103.293 25.892 104.039 25.892C104.24 25.892 104.447 25.9068 104.66 25.9364C104.873 25.9601 105.071 25.9986 105.255 26.0518V29.8249C105.048 29.7539 104.775 29.6977 104.438 29.6562C104.107 29.6148 103.811 29.5941 103.55 29.5941C103.035 29.5941 102.571 29.7095 102.156 29.9403C101.748 30.1652 101.426 30.4819 101.189 30.8903C100.958 31.2927 100.843 31.7662 100.843 32.3107V39.7148H96.5013ZM112.99 39.9723C111.564 39.9723 110.333 39.6912 109.297 39.1289C108.267 38.5607 107.474 37.7528 106.918 36.7053C106.367 35.6518 106.092 34.4 106.092 32.9499C106.092 31.5413 106.37 30.3103 106.926 29.2567C107.483 28.1973 108.267 27.3746 109.279 26.7887C110.291 26.1969 111.484 25.9009 112.857 25.9009C113.827 25.9009 114.715 26.0518 115.52 26.3537C116.325 26.6555 117.021 27.1024 117.606 27.6942C118.192 28.2861 118.648 29.017 118.974 29.8871C119.299 30.7512 119.462 31.7425 119.462 32.8612V33.9442H107.61V31.4229H115.423C115.417 30.9613 115.307 30.55 115.094 30.1889C114.881 29.8279 114.588 29.5468 114.215 29.3455C113.848 29.1384 113.425 29.0348 112.946 29.0348C112.46 29.0348 112.025 29.1443 111.641 29.3633C111.256 29.5763 110.951 29.8693 110.726 30.2422C110.501 30.6091 110.383 31.0264 110.371 31.494V34.0597C110.371 34.616 110.481 35.1043 110.7 35.5245C110.919 35.9388 111.229 36.2614 111.632 36.4922C112.034 36.723 112.514 36.8384 113.07 36.8384C113.455 36.8384 113.804 36.7852 114.117 36.6786C114.431 36.5721 114.7 36.4152 114.925 36.2081C115.15 36.0009 115.319 35.7464 115.431 35.4446L119.418 35.56C119.252 36.4537 118.888 37.232 118.326 37.8949C117.769 38.5518 117.038 39.0638 116.133 39.4308C115.227 39.7918 114.18 39.9723 112.99 39.9723ZM128.353 39.9723C126.927 39.9723 125.696 39.6912 124.66 39.1289C123.63 38.5607 122.837 37.7528 122.281 36.7053C121.731 35.6518 121.455 34.4 121.455 32.9499C121.455 31.5413 121.734 30.3103 122.29 29.2567C122.846 28.1973 123.63 27.3746 124.643 26.7887C125.655 26.1969 126.847 25.9009 128.22 25.9009C129.191 25.9009 130.079 26.0518 130.884 26.3537C131.689 26.6555 132.384 27.1024 132.97 27.6942C133.556 28.2861 134.012 29.017 134.337 29.8871C134.663 30.7512 134.825 31.7425 134.825 32.8612V33.9442H122.974V31.4229H130.786C130.78 30.9613 130.671 30.55 130.458 30.1889C130.244 29.8279 129.951 29.5468 129.579 29.3455C129.212 29.1384 128.788 29.0348 128.309 29.0348C127.824 29.0348 127.389 29.1443 127.004 29.3633C126.619 29.5763 126.315 29.8693 126.09 30.2422C125.865 30.6091 125.746 31.0264 125.735 31.494V34.0597C125.735 34.616 125.844 35.1043 126.063 35.5245C126.282 35.9388 126.593 36.2614 126.995 36.4922C127.398 36.723 127.877 36.8384 128.433 36.8384C128.818 36.8384 129.167 36.7852 129.481 36.6786C129.795 36.5721 130.064 36.4152 130.289 36.2081C130.514 36.0009 130.682 35.7464 130.795 35.4446L134.781 35.56C134.615 36.4537 134.251 37.232 133.689 37.8949C133.133 38.5518 132.402 39.0638 131.496 39.4308C130.591 39.7918 129.543 39.9723 128.353 39.9723Z" fill="white"/>
<path d="M66.4621 19.5268V25.7327H73.3736C74.6083 25.7327 75.6075 25.5036 76.3712 25.0453C77.1476 24.5743 77.5358 23.7468 77.5358 22.5629C77.5358 21.2517 77.0267 20.3861 76.0084 19.966C75.1302 19.6732 74.0101 19.5268 72.6481 19.5268H66.4621ZM66.4621 30.392V37.8964H73.3736C74.6083 37.8964 75.5693 37.7309 76.2566 37.3999C77.504 36.7888 78.1277 35.6177 78.1277 33.8864C78.1277 32.4224 77.5231 31.4167 76.3139 30.8693C75.6393 30.5638 74.691 30.4047 73.4691 30.392H66.4621ZM74.5192 14.6385C77.5931 14.9958 80.4125 15.6887 81.8508 17.6364C82.7163 18.833 83.1491 20.2652 83.1491 21.9328C83.1491 23.6514 82.7163 25.0326 81.8508 26.0765C81.3671 26.662 80.6543 27.1967 79.7124 27.6804C81.1507 28.2024 82.2326 29.0298 82.9581 30.1628C83.6964 31.2958 84.0655 32.6707 84.0655 34.2874C84.0655 35.955 83.6455 37.4508 82.8054 38.7747C82.2708 39.6531 81.6026 40.3915 80.8007 40.9898C79.897 41.6772 78.8278 42.1482 77.5931 42.4028C76.3712 42.6574 76.0084 42.7847 73.6028 42.7847C71.1971 42.7847 63.4319 40.9898 60.8489 42.7847C58.2658 44.5797 54.1845 46.6003 50.3763 47.8244C46.5681 49.0485 42.8959 46.7363 44.2559 45.6483C45.616 44.5602 50.2402 44.2882 54.5925 41.9761C58.9448 39.6639 57.3127 37.3518 53.2324 38.7747C53.2324 38.7747 44.6862 42.7847 42.896 43.3605C41.1057 43.9363 41.014 42.1121 41.014 41.1918C41.014 40.2715 21.6786 47.8244 18.4144 47.8244C14.9112 47.8244 20.4548 43.38 23.8148 42.3887C31.4349 40.1405 45.2561 36.1256 49.0385 35.4477C54.3428 34.497 52.4387 31.5249 47.2704 31.6395C42.1021 31.754 31.2547 35.7087 27.6227 36.6743C23.9907 37.6399 23.0387 35.2074 23.9907 34.2874C24.9428 33.3673 25.3508 33.8968 28.479 32.8361C31.6072 31.7755 31.3352 30.392 28.479 30.392C26.2347 30.392 22.7059 31.9012 21.297 32.5478C20.8874 32.7357 20.4712 32.9143 20.0383 33.0394C18.8916 33.3709 17.9969 33.4713 17.3391 33.3856C14.8648 33.0635 17.6613 29.8976 19.9936 29.011C29.8843 25.251 56.8943 15.0816 60.8489 14.6385C65.7048 14.0944 71.4453 14.2811 74.5192 14.6385Z" fill="white"/>
<rect x="6" y="36.5068" width="7.88846" height="3.26419" rx="1.6321" transform="rotate(-18.8951 6 36.5068)" fill="white"/>
<rect x="14.4316" y="39.498" width="7.88846" height="3.26419" rx="1.6321" transform="rotate(-18.8951 14.4316 39.498)" fill="white"/>
<rect x="7.08594" y="49.292" width="7.88846" height="3.26419" rx="1.6321" transform="rotate(-18.8951 7.08594 49.292)" fill="white"/>
<path d="M118.164 7.9209C117.749 7.9209 117.414 8.25668 117.414 8.6709C117.414 9.08511 117.749 9.4209 118.164 9.4209V7.9209ZM132.682 13.7471C133.096 13.7471 133.432 13.4113 133.432 12.9971C133.432 12.5829 133.096 12.2471 132.682 12.2471L132.682 13.7471ZM115.805 12.2471C115.391 12.2471 115.055 12.5829 115.055 12.9971C115.055 13.4113 115.391 13.7471 115.805 13.7471L115.805 12.2471ZM130.166 19.3394C130.58 19.3394 130.916 19.0036 130.916 18.5894C130.916 18.1752 130.58 17.8394 130.166 17.8394V19.3394ZM123.562 17.8394C123.148 17.8394 122.812 18.1752 122.812 18.5894C122.812 19.0036 123.148 19.3394 123.562 19.3394V17.8394ZM118.164 9.4209H130.69V7.9209H118.164V9.4209ZM132.875 11.6254V20.7525H134.375V11.6254H132.875ZM130.69 22.957H118.164V24.457H130.69V22.957ZM132.875 20.7525C132.875 21.9746 131.893 22.957 130.69 22.957V24.457C132.73 24.457 134.375 22.7938 134.375 20.7525H132.875ZM130.69 9.4209C131.893 9.4209 132.875 10.4032 132.875 11.6254H134.375C134.375 9.58408 132.73 7.9209 130.69 7.9209V9.4209ZM132.682 12.2471L115.805 12.2471L115.805 13.7471L132.682 13.7471L132.682 12.2471ZM130.166 17.8394L123.562 17.8394V19.3394L130.166 19.3394V17.8394Z" fill="white"/>
<path d="M117.447 13.6824L118.588 12.542L119.728 13.6824L118.588 14.8227L117.447 13.6824Z" fill="white" stroke="white" stroke-width="0.75"/>
<path d="M120.789 23.4267L122.207 22.0079L123.626 23.4267L122.207 24.8454L120.789 23.4267Z" fill="white" stroke="white" stroke-width="0.75"/>
<path d="M118.517 10.3416L119.421 9.25667L120.325 10.3416L119.421 11.4265L118.517 10.3416Z" fill="white" stroke="white" stroke-width="0.75"/>
<path d="M114.106 12.8454L114.968 11.9835L115.83 12.8454L114.968 13.7073L114.106 12.8454Z" fill="white" stroke="white" stroke-width="0.75"/>
<path d="M112.435 10.0631L113.297 9.20123L114.159 10.0631L113.297 10.925L112.435 10.0631Z" fill="white" stroke="white" stroke-width="0.75"/>
<path d="M110.82 14.5163L111.905 13.6122L112.99 14.5163L111.905 15.4203L110.82 14.5163Z" fill="white" stroke="white" stroke-width="0.75"/>
<path d="M115.218 8.94912L116.637 7.53033L118.056 8.94912L116.637 10.3679L115.218 8.94912Z" fill="white" stroke="white" stroke-width="0.75"/>
<path d="M114.665 17.3009L116.64 15.3253L118.616 17.3009L116.64 19.2766L114.665 17.3009Z" fill="white" stroke="white" stroke-width="0.75"/>
<path d="M116.335 21.7589L118.311 19.7833L120.287 21.7589L118.311 23.7346L116.335 21.7589Z" fill="white" stroke="white" stroke-width="0.75"/>
<path d="M110.765 19.5304L112.74 17.5547L114.716 19.5304L112.74 21.5061L110.765 19.5304Z" fill="white" stroke="white" stroke-width="0.75"/>
<defs>
<linearGradient id="paint0_linear_8462_218323" x1="277.036" y1="15.6657" x2="7.7086e-07" y2="176.446" gradientUnits="userSpaceOnUse">
<stop stop-color="#2647BD"/>
<stop offset="1" stop-color="#1B2AB1"/>
</linearGradient>
<linearGradient id="paint1_linear_8462_218323" x1="278.685" y1="15.6657" x2="1.64844" y2="176.446" gradientUnits="userSpaceOnUse">
<stop stop-color="#161616"/>
<stop offset="1" stop-color="#242424"/>
</linearGradient>
<linearGradient id="paint2_linear_8462_218323" x1="223.464" y1="84.9545" x2="4.12194" y2="169.85" gradientUnits="userSpaceOnUse">
<stop stop-color="#D5D5D5"/>
<stop offset="0.788762" stop-color="#818181" stop-opacity="0"/>
</linearGradient>
<linearGradient id="paint3_linear_8462_218323" x1="279.036" y1="15.6657" x2="2" y2="176.446" gradientUnits="userSpaceOnUse">
<stop stop-color="#2647BD"/>
<stop offset="1" stop-color="#1B2AB1"/>
</linearGradient>
<linearGradient id="paint4_linear_8462_218323" x1="280.685" y1="15.6657" x2="3.64844" y2="176.446" gradientUnits="userSpaceOnUse">
<stop stop-color="#161616"/>
<stop offset="1" stop-color="#242424"/>
</linearGradient>
<linearGradient id="paint5_linear_8462_218323" x1="225.464" y1="84.9545" x2="6.12194" y2="169.85" gradientUnits="userSpaceOnUse">
<stop stop-color="#D5D5D5"/>
<stop offset="0.788762" stop-color="#818181" stop-opacity="0"/>
</linearGradient>
<clipPath id="clip0_8462_218323">
<rect width="44" height="32" fill="white" transform="translate(230 132)"/>
</clipPath>
</defs>
</svg>
