<svg width="36" height="21" viewBox="0 0 36 21" fill="none" xmlns="http://www.w3.org/2000/svg">
<path opacity="0.35" d="M33.4446 1.09375H3.06833C2.0814 1.09375 1.28125 1.8939 1.28125 2.88083V3.15985V18.6888C1.28125 19.6757 2.0814 20.4756 3.06833 20.4756H33.4443C34.4313 20.4756 35.2314 19.6757 35.2314 18.6888V15.8855V2.88083C35.2314 1.8939 34.4313 1.09375 33.4446 1.09375Z" fill="#9FCCFB"/>
<path d="M32.6631 19.8587H2.28708C1.30015 19.8587 0.5 19.0585 0.5 18.0716V2.26364C0.5 1.27671 1.30015 0.476562 2.28708 0.476562H32.6631C33.65 0.476562 34.4502 1.27671 34.4502 2.26364V18.0716C34.4502 19.0588 33.65 19.8587 32.6631 19.8587Z" fill="#001F8B"/>
<path d="M34.4502 2.26364C34.4502 1.27671 33.65 0.476562 32.6631 0.476562H2.28708C1.30015 0.476562 0.5 1.27671 0.5 2.26364V2.54266C4.21759 2.71145 11.4236 3.93013 16.4498 10.3828C22.2348 17.8094 30.009 17.0833 34.4499 15.2681V2.26364H34.4502Z" fill="#001F8B"/>
<path d="M8.21746 11.284H3.97712C3.60149 11.284 3.29688 10.9794 3.29688 10.6037V8.38337C3.29688 8.00774 3.60149 7.70312 3.97712 7.70312H8.21746C8.59309 7.70312 8.8977 8.00774 8.8977 8.38337V10.6037C8.8977 10.9794 8.59332 11.284 8.21746 11.284Z" fill="white"/>
<path d="M32.1088 3.93974H25.9688C25.8134 3.93974 25.6875 3.81383 25.6875 3.65841V2.47663C25.6875 2.32122 25.8134 2.19531 25.9688 2.19531H32.1088C32.2642 2.19531 32.3901 2.32122 32.3901 2.47663V3.65841C32.3901 3.8136 32.2642 3.93974 32.1088 3.93974Z" fill="#1C004F"/>
<path d="M8.9427 14.3222H3.68844C3.36008 14.3222 3.09375 14.0559 3.09375 13.7275C3.09375 13.3991 3.36008 13.1328 3.68844 13.1328H8.9427C9.27106 13.1328 9.53739 13.3989 9.53739 13.7275C9.53739 14.0559 9.27106 14.3222 8.9427 14.3222Z" fill="white"/>
<path d="M16.3802 14.3222H11.1259C10.7976 14.3222 10.5312 14.0559 10.5312 13.7275C10.5312 13.3991 10.7976 13.1328 11.1259 13.1328H16.3802C16.7086 13.1328 16.9749 13.3989 16.9749 13.7275C16.9747 14.0559 16.7086 14.3222 16.3802 14.3222Z" fill="white"/>
<path d="M23.8646 14.3222H18.6103C18.282 14.3222 18.0156 14.0559 18.0156 13.7275C18.0156 13.3991 18.282 13.1328 18.6103 13.1328H23.8646C24.1929 13.1328 24.4593 13.3989 24.4593 13.7275C24.459 14.0559 24.1929 14.3222 23.8646 14.3222Z" fill="white"/>
<path d="M31.3099 14.3222H26.0556C25.7273 14.3222 25.4609 14.0559 25.4609 13.7275C25.4609 13.3991 25.727 13.1328 26.0556 13.1328H31.3099C31.6383 13.1328 31.9046 13.3989 31.9046 13.7275C31.9046 14.0559 31.6385 14.3222 31.3099 14.3222Z" fill="white"/>
<path d="M10.5945 18.3323H3.75977C3.56008 18.3323 3.39844 18.1704 3.39844 17.9709C3.39844 17.7712 3.56031 17.6094 3.75977 17.6094H10.5945C10.7942 17.6094 10.9561 17.7712 10.9561 17.9709C10.9561 18.1704 10.7942 18.3323 10.5945 18.3323Z" fill="#1C004F"/>
<path d="M31.2962 18.3323H27.9238C27.7241 18.3323 27.5625 18.1704 27.5625 17.9709C27.5625 17.7712 27.7244 17.6094 27.9238 17.6094H31.2962C31.4959 17.6094 31.6576 17.7712 31.6576 17.9709C31.6576 18.1704 31.4959 18.3323 31.2962 18.3323Z" fill="#1C004F"/>
<mask id="mask0_4709_20057" style="mask-type:luminance" maskUnits="userSpaceOnUse" x="3" y="7" width="6" height="5">
<path d="M8.22527 11.2996H3.98493C3.6093 11.2996 3.30469 10.995 3.30469 10.6194V8.39899C3.30469 8.02336 3.6093 7.71875 3.98493 7.71875H8.22527C8.60091 7.71875 8.90552 8.02336 8.90552 8.39899V10.6194C8.90552 10.995 8.60114 11.2996 8.22527 11.2996Z" fill="white"/>
</mask>
<g mask="url(#mask0_4709_20057)">
<path d="M4.32422 7.65625C4.82046 8.29383 5.60677 9.74079 4.25781 11.3927" stroke="#001F8B" stroke-width="0.5" stroke-miterlimit="10" stroke-linecap="round"/>
</g>
<mask id="mask1_4709_20057" style="mask-type:luminance" maskUnits="userSpaceOnUse" x="3" y="7" width="6" height="5">
<path d="M8.22527 11.2996H3.98493C3.6093 11.2996 3.30469 10.995 3.30469 10.6194V8.39899C3.30469 8.02336 3.6093 7.71875 3.98493 7.71875H8.22527C8.60091 7.71875 8.90552 8.02336 8.90552 8.39899V10.6194C8.90552 10.995 8.60114 11.2996 8.22527 11.2996Z" fill="white"/>
</mask>
<g mask="url(#mask1_4709_20057)">
<path d="M2.94531 9.48438H5.00011" stroke="#001F8B" stroke-width="0.5" stroke-miterlimit="10"/>
</g>
<mask id="mask2_4709_20057" style="mask-type:luminance" maskUnits="userSpaceOnUse" x="3" y="7" width="6" height="5">
<path d="M8.22527 11.2996H3.98493C3.6093 11.2996 3.30469 10.995 3.30469 10.6194V8.39899C3.30469 8.02336 3.6093 7.71875 3.98493 7.71875H8.22527C8.60091 7.71875 8.90552 8.02336 8.90552 8.39899V10.6194C8.90552 10.995 8.60114 11.2996 8.22527 11.2996Z" fill="white"/>
</mask>
<g mask="url(#mask2_4709_20057)">
<path d="M7.72223 7.65625C7.226 8.29383 6.43968 9.74079 7.78864 11.3927" stroke="#001F8B" stroke-width="0.5" stroke-miterlimit="10" stroke-linecap="round"/>
</g>
<mask id="mask3_4709_20057" style="mask-type:luminance" maskUnits="userSpaceOnUse" x="3" y="7" width="6" height="5">
<path d="M8.22527 11.2996H3.98493C3.6093 11.2996 3.30469 10.995 3.30469 10.6194V8.39899C3.30469 8.02336 3.6093 7.71875 3.98493 7.71875H8.22527C8.60091 7.71875 8.90552 8.02336 8.90552 8.39899V10.6194C8.90552 10.995 8.60114 11.2996 8.22527 11.2996Z" fill="white"/>
</mask>
<g mask="url(#mask3_4709_20057)">
<path d="M9.1019 9.48438H7.04688" stroke="#001F8B" stroke-width="0.5" stroke-miterlimit="10"/>
</g>
</svg>
